PathFileType	4	(x/y/z)	S06_PSF_T02
DataRate	CameraRate	NumFrames	NumMarkers	Units	OrigDataRate	OrigDataStartFrame	OrigNumFrames
240	240	10	51	mm	240	352	402
Frame#	Time	Sternum			R.Acromium			L.Acromium			Top.Head			R.ASIS			L.ASIS			R.PSIS			L.PSIS			R.Great.Tro			L.Great.Tro			R.Iliac.Crest			L.Iliac.Crest			V.Sacral			R.Thigh.Upper.Post			R.Thigh.Lower.Ant			R.Thigh.Lower.Post			R.Thigh.Upper.Ant			R.Knee.Lat			R.Knee.Med			R.Shank.Upper.Post			R.Shank.Lower.Ant			R.Shank.Lower.Post			R.Shank.Upper.Ant			R.Ankle.Lat			R.Ankle.Med			R.Heel.Upper			R.Heel.Med			R.Heel.Lat			R.Toe.Lat			R.Toe.Med			R.Toe.Tip			L.Thigh.Upper.Post			L.Thigh.Lower.Ant			L.Thigh.Lower.Post			L.Thigh.Upper.Ant			L.Knee.Lat			L.Knee.Med			L.Shank.Upper.Post			L.Shank.Lower.Ant			L.Shank.Lower.Post			L.Shank.Upper.Ant			L.Ankle.Lat			L.Ankle.Med			L.Heel.Upper			L.Heel.Med			L.Heel.Lat			L.Toe.Lat			L.Toe.Med			L.Toe.Tip			Cervical.Spine			Back			
		X1	Y1	Z1	X2	Y2	Z2	X3	Y3	Z3	X4	Y4	Z4	X5	Y5	Z5	X6	Y6	Z6	X7	Y7	Z7	X8	Y8	Z8	X9	Y9	Z9	X10	Y10	Z10	X11	Y11	Z11	X12	Y12	Z12	X13	Y13	Z13	X14	Y14	Z14	X15	Y15	Z15	X16	Y16	Z16	X17	Y17	Z17	X18	Y18	Z18	X19	Y19	Z19	X20	Y20	Z20	X21	Y21	Z21	X22	Y22	Z22	X23	Y23	Z23	X24	Y24	Z24	X25	Y25	Z25	X26	Y26	Z26	X27	Y27	Z27	X28	Y28	Z28	X29	Y29	Z29	X30	Y30	Z30	X31	Y31	Z31	X32	Y32	Z32	X33	Y33	Z33	X34	Y34	Z34	X35	Y35	Z35	X36	Y36	Z36	X37	Y37	Z37	X38	Y38	Z38	X39	Y39	Z39	X40	Y40	Z40	X41	Y41	Z41	X42	Y42	Z42	X43	Y43	Z43	X44	Y44	Z44	X45	Y45	Z45	X46	Y46	Z46	X47	Y47	Z47	X48	Y48	Z48	X49	Y49	Z49	X50	Y50	Z50	X51	Y51	Z51	

352	1.4625	426.97	1290.6	323.14	299.87	1500	487.43	303.87	1499.7	136.32	350.64	1815.1	314.92	373.07	1058.6	439.09	387.62	1059.6	185.73	178.65	1073.6	339.42	181.29	1080.5	258.78	325.36	983.38	486.36	287.54	985.95	128.74	285.2	1127.6	469.11	317.3	1132.1	149.24	166.96	1042.5	300.55	435.68	759.07	478.96	517.1	706.77	443.98	459.1	673.75	461.56	494.51	794.16	455.73	513.19	579.83	452.51	516.41	580.68	324.01	432.57	366.81	464.56	478.64	292.43	445.69	414.21	292.05	454.79	496.4	366.58	455.8	417.47	158.24	436.95	435.49	158.68	351.54	350.42	121.56	386.67	355.74	87.034	359.84	351.34	93.335	424.62	522.12	62.642	476.05	553.91	55.975	360.56	618.73	67.419	406.9	322.31	726.57	159.81	362.58	642.2	219.11	293.95	641.92	179.33	385.68	731.82	194.73	262.8	547.06	197.82	290.34	554.52	316.9	184.93	324.4	216.07	240.65	255.05	220.4	170.75	254.62	236.51	250.62	324.19	206.04	200.48	110.94	241.58	211.11	132.05	326.9	114.74	76.001	282.52	119.35	47.748	314.25	123.52	51.617	252.46	304.91	43.954	221.47	319.71	43.283	342.21	394.46	53.703	290.62	249.96	1553	311.66	186.15	1282.2	305.29
353	1.4667	432.34	1290.1	323.19	305.11	1499.6	487.47	309.32	1499.3	136.37	355.97	1814.7	315.02	378.49	1058.2	439.13	392.76	1059	185.81	183.99	1073.3	339.58	186.54	1080.1	258.92	330.66	982.97	486.47	292.43	985.54	128.92	290.62	1127.2	469.18	322.47	1131.5	149.32	172.28	1042.2	300.76	440.07	758.37	478.53	521.5	705.92	443.73	463.35	673.02	461.05	499.08	793.34	455.56	517.94	579.22	452.22	521.19	580.11	323.8	442.83	364.03	463.85	490.96	291.08	445.09	426.58	288.82	453.89	506.67	365.6	455.31	433.62	155.05	435.85	452.06	156.14	350.56	367.94	116.68	385.17	374.36	82.432	358.29	369.45	88.402	423.01	540.65	62.102	475.35	573.19	56.663	360.08	637.41	69.701	406.85	325.37	726.26	160.06	365.22	641.55	219.15	296.49	641.79	179.55	388.83	731.08	194.85	264.65	547.05	197.97	292.37	554.3	317.02	185.84	324.66	216.34	241.31	255.11	220.54	171.46	254.95	236.78	251.53	324.21	206.17	200.65	111.1	241.8	211.43	132.15	327.12	114.82	76.158	282.69	119.42	47.825	314.38	123.59	51.795	252.61	304.95	43.996	221.54	319.81	43.11	342.29	394.56	53.463	290.68	255.29	1552.6	311.67	191.51	1281.7	305.26
354	1.4708	437.74	1289.7	323.26	310.35	1499.1	487.52	314.77	1498.9	136.43	361.29	1814.3	315.12	383.93	1057.7	439.17	397.93	1058.3	185.91	189.37	1072.9	339.73	191.82	1079.7	259.06	335.98	982.5	486.59	297.36	985.11	129.1	296.05	1126.8	469.26	327.7	1131	149.4	177.63	1041.8	300.96	444.32	757.56	478.15	525.75	704.92	443.54	467.43	672.17	460.59	503.52	792.38	455.43	522.51	578.49	451.96	525.82	579.42	323.61	452.98	361.28	463.09	503.15	289.82	444.49	438.87	285.67	452.94	516.78	364.65	454.82	449.74	152.04	434.7	468.6	153.82	349.53	385.47	112.03	383.61	392.99	78.108	356.66	387.59	83.702	421.33	559.09	61.805	474.59	592.33	57.681	359.54	655.91	72.275	406.75	328.45	725.94	160.3	367.87	640.9	219.17	299.06	641.64	179.76	392.01	730.34	194.94	266.53	547.04	198.12	294.44	554.06	317.14	186.78	324.92	216.61	242	255.17	220.68	172.18	255.28	237.05	252.46	324.23	206.3	200.82	111.27	242.02	211.75	132.25	327.34	114.91	76.312	282.86	119.49	47.902	314.52	123.66	51.971	252.76	304.99	44.038	221.61	319.92	42.941	342.37	394.68	53.219	290.73	260.63	1552.1	311.69	196.89	1281.3	305.25
355	1.475	443.16	1289.2	323.33	315.61	1498.7	487.58	320.23	1498.5	136.49	366.61	1813.8	315.22	389.39	1057.2	439.22	403.16	1057.7	186	194.78	1072.5	339.89	197.14	1079.3	259.2	341.31	981.98	486.7	302.31	984.66	129.29	301.51	1126.3	469.34	332.99	1130.5	149.49	183.01	1041.5	301.16	448.43	756.64	477.83	529.84	703.79	443.41	471.34	671.21	460.19	507.83	791.3	455.35	526.9	577.65	451.72	530.29	578.63	323.42	463.02	358.58	462.28	515.21	288.66	443.88	451.06	282.63	451.92	526.73	363.74	454.33	465.8	149.25	433.51	485.06	151.75	348.47	403	107.63	381.99	411.62	74.074	354.97	405.74	79.248	419.59	577.41	61.761	473.77	611.31	59.039	358.95	674.2	75.148	406.61	331.56	725.61	160.51	370.56	640.24	219.17	301.67	641.48	179.96	395.21	729.58	195.02	268.45	547.02	198.25	296.56	553.8	317.24	187.74	325.19	216.87	242.69	255.24	220.81	172.93	255.62	237.32	253.41	324.25	206.43	201	111.44	242.24	212.07	132.35	327.55	115	76.463	283.04	119.57	47.978	314.66	123.72	52.143	252.91	305.03	44.08	221.68	320.02	42.776	342.45	394.79	52.97	290.78	265.98	1551.7	311.72	202.3	1280.8	305.25
356	1.4792	448.6	1288.7	323.4	320.87	1498.2	487.64	325.69	1498	136.56	371.93	1813.4	315.32	394.87	1056.6	439.27	408.44	1057	186.11	200.21	1072.1	340.05	202.49	1078.9	259.35	346.64	981.42	486.83	307.29	984.2	129.48	307	1125.9	469.44	338.33	1129.9	149.58	188.42	1041.1	301.36	452.42	755.61	477.57	533.8	702.52	443.35	475.1	670.13	459.84	512.03	790.08	455.32	531.13	576.69	451.49	534.61	577.72	323.24	472.92	355.93	461.44	527.11	287.6	443.26	463.13	279.7	450.86	536.52	362.88	453.83	481.78	146.66	432.27	501.43	149.93	347.38	420.49	103.48	380.34	430.2	70.337	353.23	423.86	75.049	417.79	595.6	61.977	472.88	630.09	60.742	358.3	692.26	78.326	406.43	334.69	725.25	160.71	373.28	639.57	219.16	304.31	641.31	180.13	398.45	728.81	195.08	270.42	546.98	198.38	298.72	553.53	317.34	188.74	325.46	217.12	243.42	255.3	220.94	173.7	255.96	237.57	254.39	324.27	206.55	201.18	111.61	242.45	212.4	132.47	327.76	115.09	76.613	283.23	119.64	48.055	314.82	123.79	52.313	253.08	305.07	44.121	221.75	320.13	42.615	342.53	394.91	52.714	290.83	271.33	1551.2	311.75	207.72	1280.3	305.25
357	1.4833	454.06	1288.2	323.48	326.15	1497.6	487.7	331.15	1497.6	136.63	377.25	1812.9	315.42	400.37	1056	439.34	413.76	1056.3	186.21	205.67	1071.7	340.21	207.87	1078.4	259.49	351.98	980.81	486.95	312.31	983.71	129.67	312.5	1125.4	469.54	343.74	1129.3	149.68	193.87	1040.7	301.55	456.31	754.48	477.38	537.64	701.13	443.34	478.72	668.95	459.55	516.13	788.75	455.35	535.19	575.62	451.28	538.79	576.7	323.05	482.69	353.34	460.54	538.84	286.65	442.64	475.07	276.88	449.74	546.13	362.07	453.34	497.66	144.3	430.98	517.67	148.36	346.26	437.91	99.601	378.64	448.71	66.906	351.44	441.93	71.113	415.95	613.62	62.458	471.94	648.64	62.794	357.59	710.06	81.808	406.18	337.86	724.89	160.89	376.04	638.89	219.12	307	641.12	180.3	401.71	728.03	195.12	272.44	546.94	198.5	300.93	553.26	317.42	189.77	325.74	217.36	244.16	255.37	221.07	174.49	256.31	237.82	255.41	324.28	206.66	201.37	111.79	242.67	212.74	132.58	327.97	115.18	76.762	283.43	119.72	48.134	314.99	123.85	52.483	253.25	305.11	44.161	221.82	320.23	42.46	342.6	395.03	52.452	290.88	276.69	1550.6	311.79	213.17	1279.7	305.27
358	1.4875	459.55	1287.7	323.57	331.44	1497.1	487.77	336.61	1497.1	136.71	382.57	1812.3	315.52	405.89	1055.4	439.41	419.14	1055.6	186.32	211.16	1071.2	340.37	213.29	1078	259.64	357.33	980.16	487.08	317.36	983.21	129.86	318.03	1124.8	469.64	349.21	1128.7	149.78	199.35	1040.3	301.74	460.11	753.25	477.27	541.35	699.62	443.39	482.22	667.67	459.33	520.13	787.31	455.42	539.1	574.45	451.08	542.82	575.59	322.86	492.32	350.81	459.6	550.4	285.79	442.02	486.87	274.19	448.56	555.55	361.31	452.84	513.4	142.16	429.66	533.76	147.04	345.12	455.24	95.986	376.93	467.1	63.783	349.6	459.92	67.446	414.06	631.46	63.205	470.94	666.93	65.192	356.82	727.55	85.591	405.88	341.07	724.5	161.05	378.84	638.2	219.07	309.73	640.92	180.45	405.02	727.24	195.15	274.52	546.88	198.61	303.19	552.96	317.5	190.84	326.02	217.6	244.94	255.43	221.19	175.32	256.67	238.07	256.46	324.3	206.78	201.57	111.97	242.88	213.09	132.71	328.17	115.27	76.913	283.63	119.8	48.217	315.16	123.91	52.653	253.43	305.15	44.199	221.9	320.34	42.311	342.68	395.16	52.183	290.92	282.04	1550.1	311.84	218.63	1279.1	305.29
359	1.4917	465.06	1287.2	323.66	336.74	1496.5	487.84	342.07	1496.5	136.79	387.89	1811.8	315.63	411.43	1054.8	439.5	424.56	1054.9	186.44	216.68	1070.8	340.53	218.74	1077.5	259.8	362.67	979.47	487.21	322.45	982.69	130.05	323.59	1124.3	469.75	354.73	1128.1	149.88	204.85	1039.8	301.92	463.83	751.94	477.23	544.97	698	443.5	485.61	666.31	459.17	524.06	785.77	455.56	542.88	573.19	450.89	546.72	574.38	322.66	501.8	348.36	458.61	561.75	285.04	441.39	498.51	271.62	447.33	564.77	360.59	452.34	528.99	140.24	428.3	549.65	145.99	343.95	472.42	92.64	375.19	485.35	60.97	347.73	477.79	64.051	412.15	649.06	64.213	469.88	684.91	67.928	356	744.72	89.665	405.52	344.32	724.1	161.2	381.68	637.5	219.01	312.51	640.7	180.59	408.36	726.43	195.16	276.66	546.82	198.72	305.51	552.66	317.57	191.95	326.31	217.83	245.75	255.49	221.32	176.17	257.04	238.31	257.56	324.31	206.9	201.77	112.17	243.09	213.45	132.85	328.37	115.36	77.068	283.84	119.88	48.307	315.35	123.97	52.826	253.62	305.18	44.235	221.98	320.44	42.168	342.75	395.29	51.907	290.97	287.41	1549.5	311.9	224.12	1278.5	305.32
360	1.4958	470.59	1286.6	323.76	342.05	1495.9	487.92	347.53	1496	136.88	393.21	1811.2	315.73	416.99	1054.1	439.59	430.02	1054.2	186.56	222.22	1070.3	340.69	224.23	1077	259.96	368.02	978.75	487.35	327.57	982.14	130.25	329.16	1123.7	469.87	360.3	1127.4	149.98	210.39	1039.3	302.1	467.5	750.55	477.27	548.5	696.29	443.65	488.9	664.86	459.08	527.92	784.14	455.74	546.53	571.85	450.7	550.49	573.1	322.44	511.11	345.99	457.58	572.89	284.4	440.75	509.97	269.19	446.05	573.8	359.93	451.84	544.4	138.56	426.92	565.32	145.19	342.77	489.44	89.561	373.43	503.4	58.465	345.83	495.51	60.928	410.21	666.42	65.476	468.77	702.56	70.988	355.12	761.52	94.017	405.1	347.62	723.69	161.33	384.58	636.79	218.94	315.34	640.46	180.72	411.74	725.61	195.16	278.86	546.74	198.84	307.89	552.35	317.64	193.11	326.6	218.05	246.59	255.56	221.45	177.07	257.41	238.54	258.7	324.32	207.02	201.99	112.37	243.3	213.82	133	328.57	115.46	77.228	284.06	119.97	48.407	315.55	124.03	53.005	253.82	305.22	44.27	222.07	320.55	42.031	342.82	395.42	51.622	291.01	292.77	1548.9	311.96	229.62	1277.8	305.36
361	1.5	476.15	1286.1	323.87	347.37	1495.3	488	353	1495.4	136.98	398.53	1810.6	315.85	422.56	1053.4	439.69	435.52	1053.4	186.69	227.79	1069.7	340.86	229.75	1076.4	260.12	373.37	977.99	487.49	332.72	981.57	130.45	334.76	1123.1	470	365.91	1126.7	150.09	215.96	1038.8	302.28	471.12	749.1	477.4	551.97	694.5	443.86	492.13	663.36	459.04	531.73	782.43	455.98	550.06	570.42	450.52	554.15	571.75	322.2	520.25	343.7	456.5	583.8	283.85	440.1	521.24	266.9	444.72	582.61	359.31	451.33	559.58	137.1	425.51	580.73	144.63	341.58	506.26	86.748	371.67	521.23	56.262	343.91	513.04	58.077	408.26	683.49	66.983	467.6	719.84	74.355	354.19	777.94	98.626	404.62	350.97	723.26	161.44	387.53	636.08	218.86	318.24	640.21	180.85	415.17	724.78	195.14	281.14	546.65	198.95	310.33	552.03	317.71	194.32	326.91	218.27	247.48	255.62	221.58	177.99	257.8	238.76	259.88	324.33	207.15	202.22	112.58	243.51	214.21	133.16	328.77	115.55	77.399	284.29	120.06	48.521	315.75	124.1	53.194	254.03	305.26	44.303	222.16	320.66	41.899	342.89	395.55	51.329	291.05	298.15	1548.2	312.03	235.15	1277.1	305.41
